<svg xmlns="http://www.w3.org/2000/svg" viewBox="1 8 41.8 25">
  <path fill="#F4981A" d="M42.8 20.5c0 6.9-5.6 12.5-12.5 12.5s-12.5-5.6-12.5-12.5S23.4 8 30.3 8s12.5 5.6 12.5 12.5z"/>
  <path fill="#CC1417" d="M13.4 8C6.6 8 1 13.6 1 20.5S6.6 33 13.5 33c3.2 0 6.2-1.2 8.4-3.3.5-.4.9-.9 1.3-1.3h-2.6c-.3-.4-.7-.8-.9-1.3h4.4c.3-.4.5-.9.7-1.3H19c-.2-.4-.4-.9-.5-1.3h6.9c.4-1.2.6-2.6.6-4 0-.9-.1-1.8-.3-2.7h-7.6c.1-.4.2-.9.4-1.3h6.9c-.2-.5-.3-.9-.5-1.3H19c.2-.5.5-.9.7-1.3h4.4c-.3-.5-.6-.9-1-1.3h-2.5c.4-.4.8-.9 1.3-1.3C19.7 9.2 16.7 8 13.4 8c.1 0 0 0 0 0z"/>
  <path fill="#FFF" d="M18 23.7l.2-1.1h-.3c-.5 0-.5-.2-.5-.4l.4-2.3h.7l.2-1.3H18v-.8h-1.3s-.8 4.4-.8 4.9c0 .8.4 1.1 1.1 1.1.5.1.9-.1 1-.1zm.4-2.2c0 1.9 1.2 2.3 2.3 2.3 1 0 1.4-.2 1.4-.2l.2-1.3s-.7.3-1.4.3c-1.4 0-1.2-1.1-1.2-1.1h2.7s.2-.9.2-1.2c0-.9-.4-1.9-1.9-1.9-1.3.1-2.3 1.5-2.3 3.1zm2.3-1.9c.8 0 .6.8.6.9h-1.5c.1 0 .2-.9.9-.9zm8.5 4.1l.2-1.5s-.7.3-1.1.3c-.9 0-1.3-.7-1.3-1.5 0-1.6.8-2.4 1.7-2.4.7 0 1.2.4 1.2.4l.2-1.4s-.8-.3-1.5-.3c-1.5 0-3 1.3-3 3.8 0 1.7.8 2.8 2.4 2.8.5 0 1.2-.2 1.2-.2zm-18.5-5.2c-.9 0-1.6.3-1.6.3l-.2 1.1s.6-.2 1.4-.2c.5 0 .9.1.9.5v.3h-.6c-1.2 0-2.4.5-2.4 2 0 1.2.8 1.4 1.3 1.4.9 0 1.3-.6 1.4-.6v.5H12l.5-3.7c0-1.6-1.4-1.6-1.8-1.6zm.3 3c0 .2-.1 1.3-.9 1.3-.4 0-.5-.3-.5-.5 0-.4.2-.8 1.2-.8.1-.1.1 0 .2 0zm2.7 2.3c.3 0 2 .1 2-1.7 0-1.7-1.6-1.3-1.6-2 0-.3.3-.4.7-.4.2 0 .9.1.9.1l.2-1.2s-.5-.1-1.2-.1c-1 0-2 .4-2 1.7 0 1.5 1.7 1.4 1.7 2 0 .4-.5.5-.8.5-.6 0-1.2-.2-1.2-.2l-.2 1.2c.1 0 .4.1 1.5.1zm26.5-6.4l-.3 1.8s-.5-.7-1.3-.7c-1.2 0-2.2 1.5-2.2 3.2 0 1.1.5 2.2 1.7 2.2.8 0 1.2-.6 1.2-.6l-.1.5h1.3l1-6.3-1.3-.1zm-.6 3.5c0 .7-.3 1.6-1.1 1.6-.5 0-.7-.4-.7-1 0-1 .5-1.7 1-1.7s.8.3.8 1.1zM3.5 23.8l.8-4.8.1 4.8h.9L7 19l-.8 4.8h1.4l1-6.3h-2l-1.3 3.9-.1-4h-2l-1.1 6.3c.1.1 1.4.1 1.4.1zm20.5 0c.4-2.2.5-4 1.4-3.7.2-.9.3-1.2.5-1.5h-.3c-.6 0-1 .8-1 .8l.1-.7h-1.2l-.8 5.2H24v-.1zm8.2-5.3c-.9 0-1.6.3-1.6.3l-.2 1.1s.6-.2 1.4-.2c.5 0 .9.1.9.5v.3h-.6c-1.2 0-2.4.5-2.4 2 0 1.2.8 1.4 1.3 1.4.9 0 1.3-.6 1.4-.6v.5h1.2l.5-3.7c0-1.6-1.4-1.6-1.9-1.6zm.3 3c0 .2-.1 1.3-.9 1.3-.4 0-.5-.3-.5-.5 0-.4.2-.8 1.2-.8.2-.1.2 0 .2 0zm2.6 2.3c.4-2.2.5-4 1.4-3.7.2-.9.3-1.2.5-1.5h-.3c-.6 0-1 .8-1 .8l.1-.7h-1.2l-.8 5.2h1.3v-.1z"/>
</svg>
