<svg xmlns="http://www.w3.org/2000/svg" viewBox="15 8 70.3 25">
  <path fill="#E6292B" d="M40.9 16.1v.4c0 .5.2.7.8.7.3 0 .4 0 .6-.1l-.4 1.9c-.6.2-1.1.3-1.6.3-1.1 0-1.7-.7-1.7-1.9 0-.2 0-.5.1-.8l.1-.9.1-.7 1-6h2.2l-.3 1.3h1.1l-.3 2.1h-1.1l-.6 3.7zm8.8-2.9c0 .7-.1 1.3-.3 2.2H45v.3c0 1 .7 1.6 1.9 1.6.8 0 1.5-.2 2.3-.6l-.3 2.2c-.8.2-1.5.4-2.3.4-2.5 0-3.8-1.4-3.8-4 0-3 1.6-5.3 3.9-5.3 1.8 0 3 1.3 3 3.2zm-2 0c0-.7-.4-1.1-1-1.1-.7 0-1.2.6-1.4 1.6l2.4-.1v-.4zm-14.5-.1c0 1.1.5 1.9 1.7 2.5.9.4 1 .6 1 1 0 .5-.4.8-1.3.8-.7 0-1.3-.1-2-.4l-.3 2h.1l.4.1c.1 0 .3.1.6.1.5 0 .9.1 1.2.1 2.3 0 3.4-.9 3.4-3 0-1.2-.4-1.9-1.6-2.5-.9-.4-1-.5-1-1s.4-.7 1.1-.7c.4 0 1 .1 1.6.1l.3-2c-.6-.1-1.4-.2-1.9-.2-2.5.1-3.3 1.4-3.3 3.1zM22.6 8.3L20.4 15V8.2h-3.2l-1.8 10.9h2.1l1.3-8.3.2 8.3h1.6l2.8-8.4-1.3 8.4h2.2L26 8.3h-3.4zM55 10.2c-.7 0-1.1.4-1.8 1.4l.2-1.3h-2L50 19.1h2.2c.8-5.4 1-6.3 2.1-6.3h.2c.1-1.1.4-1.9.7-2.6H55zm-22.6 4.4l-.5 3.1-.1.6-.1.5v.3h-1.9v-.9c-.6.7-1.3 1.1-2.3 1.1-1.2 0-2-1-2-2.4 0-2.2 1.4-3.4 3.9-3.4.3 0 .6 0 .9.1.1-.3.1-.4.1-.6 0-.6-.4-.8-1.4-.8-.6 0-1.3.1-1.8.3l-.3.1-.2.1.3-2c1.1-.3 1.8-.5 2.7-.5 1.9 0 2.9.9 2.9 2.6 0 .4 0 .8-.2 1.8zm-2.4.6h-.5c-1.3 0-1.9.5-1.9 1.3 0 .6.3.9.8.9.9 0 1.6-.9 1.6-2.2zm51.9-7l-1.7 10.9h-2.1l.1-.9c-.6.7-1.2 1-2 1-1.6 0-2.7-1.5-2.7-3.7 0-2.9 1.6-5.4 3.6-5.4.9 0 1.5.4 2.1 1.2l.5-3.1h2.2zM78.7 14c0-1.1-.4-1.7-1.2-1.7-1 0-1.7 1.2-1.7 3 0 1.1.4 1.7 1.1 1.7 1 0 1.8-1.2 1.8-3zm-9.8-1.2c0 .4 0 .8-.2 1.8l-.5 3.1-.1.6-.1.3v.5h-1.8v-.9c-.6.7-1.3 1.1-2.3 1.1-1.2 0-2-1-2-2.4 0-2.2 1.4-3.4 3.9-3.4.2 0 .6 0 .9.1.1-.3.1-.4.1-.6 0-.6-.4-.8-1.4-.8-.6 0-1.3.1-1.8.3l-.3.1-.2.1.3-2c1.1-.3 1.8-.5 2.6-.5 1.9 0 2.9.9 2.9 2.6zm-2.5 2.4h-.5c-1.3 0-1.9.5-1.9 1.3 0 .6.3.9.8.9.9 0 1.5-.9 1.6-2.2zm7.8-5H74c-.7 0-1.1.4-1.8 1.4l.2-1.3h-2L69 19.1h2.2c.8-5.4 1-6.3 2.1-6.3h.2c.1-1.1.4-1.9.7-2.6zm-16.9 4.3c0-2.4 1.2-4.1 2.8-4.1.6 0 1.2.2 2 .6l.4-2.4c-.2-.1-.2-.1-.5-.2l-1-.3c-.3-.1-.6-.1-1-.1-2.9 0-5 2.7-5 6.6 0 2.9 1.5 4.7 3.9 4.7.7 0 1.2-.1 2-.3l.4-2.5c-.8.4-1.4.6-1.9.6-1.3 0-2.1-.9-2.1-2.6z"/>
  <path fill="#F49627" d="M42.3 23.9l-.9 6.5-.3 2.3h-2l.2-1.4c-.6 1-1.3 1.6-2.4 1.6-1.2 0-1.9-1.3-1.9-3 0-.6 0-.9.2-1.9l.6-4.1H38l-.7 4.1c-.1.4-.1.9-.1 1.3 0 .5.2 1 .8 1 .9 0 1.4-1.1 1.6-2.4l.6-4h2.1zm4.5-.1c-.7 0-1.1.4-1.7 1.4l.2-1.3h-1.9l-1.3 8.8h2.1c.7-5.4.9-6.3 1.9-6.3h.2c.1-1.1.4-1.9.7-2.6h-.2zm-17.9 5.1c0 2.2 1.1 4 2.9 4 .8 0 1.4-.1 1.8-.3l.4-2.3c-.5.3-.9.4-1.4.4-.9 0-1.5-.9-1.5-1.9 0-1.8.8-2.8 1.9-2.8.4 0 .9.1 1.3.4l.5-2.1c-.6-.4-1.4-.6-1.9-.6-2.4 0-4 2.3-4 5.2zm-9.2-5.2c.7 0 1.3.2 1.7.5L22 22c-.5-.4-1.4-.5-2.4-.5-1.7 0-3.5.8-3.5 3.7 0 3.1 3 2.4 3 4.2 0 1.1-1 1.3-1.7 1.3-.6 0-1.5-.2-1.9-.6l-.5 2.3c.7.3 1.6.6 2.4.6 1.8 0 3.8-.8 3.8-3.9 0-3.3-3-2.7-3-4.3 0-.9.7-1.1 1.5-1.1zm8.7 3.2c0 .6-.1 1.3-.3 2.2H24v.3c0 1 .6 1.6 1.8 1.6.7 0 1.4-.2 2.1-.6l-.3 2.2c-.7.2-1.4.4-2.1.4-2.3 0-3.5-1.4-3.5-4 0-3 1.5-5.3 3.6-5.3 1.7 0 2.8 1.3 2.8 3.2zm-2 0c0-.7-.4-1.1-1-1.1-.7 0-1.1.6-1.3 1.6l2.3-.1v-.4zm26.6 0c0 .6-.1 1.3-.3 2.2h-4.1v.3c0 1 .6 1.6 1.8 1.6.7 0 1.4-.2 2.2-.6l-.4 2.2c-.7.2-1.4.4-2.1.4-2.3 0-3.5-1.4-3.5-4 0-3 1.5-5.3 3.6-5.3 1.7 0 2.8 1.3 2.8 3.2zm-2 0c0-.7-.4-1.1-1-1.1-.7 0-1.1.6-1.3 1.6l2.3-.1v-.4zm16 .8c0 3.7-1.6 5.3-3.9 5.2-2.3 0-3.2-1.8-3.2-4 0-3.1 1.5-5.2 3.9-5.2 2.1 0 3.2 1.8 3.2 4zm-2.1 0c0-.9-.3-1.8-1.1-1.8-1 0-1.6 1.6-1.6 3 0 1.2.4 2 1.1 2 1 0 1.6-1.2 1.6-3.2zm10.7-6L74 32.6h-2l.1-.9c-.6.7-1.2 1-1.9 1-1.5 0-2.5-1.5-2.5-3.7 0-2.9 1.5-5.4 3.4-5.4.8 0 1.4.4 2 1.2l.5-3.1h2zm-3.1 5.8c0-1.1-.4-1.7-1.1-1.7-.9 0-1.6 1.2-1.6 3 .1 1.2.4 1.7 1.1 1.7 1 0 1.6-1.2 1.6-3zm4.9 1.6v.3c0 1 .6 1.6 1.8 1.6.7 0 1.4-.2 2.1-.6l-.3 2.2c-.7.2-1.4.4-2.1.4-2.3 0-3.5-1.4-3.5-4 0-3 1.5-5.3 3.6-5.3 1.7 0 2.8 1.3 2.8 3.2 0 .6-.1 1.3-.3 2.2h-4.1zm.2-1.7l2.3-.1v-.4c0-.7-.4-1.1-1-1.1-.7 0-1.1.6-1.3 1.6zm-21.7.7c0-2.4 1.1-4.1 2.6-4.1.5 0 1.1.1 1.9.6l.3-2.4c-.2-.1-.3-.1-.5-.2l-.8-.2c-.2-.1-.5-.1-.9-.1-2.8 0-4.7 2.7-4.7 6.6 0 2.9 1.4 4.7 3.6 4.7.5 0 1-.1 1.8-.3l.4-2.5c-.7.4-1.3.6-1.8.6-1.2 0-1.9-1-1.9-2.7z"/>
</svg>
