<svg xmlns="http://www.w3.org/2000/svg" viewBox="0 0 76.4 25">
  <path fill="#0958A0" d="M33.1 24.5h-6.2L30.8.6H37l-3.9 23.9zM55.6 1.2c-1.2-.5-3.2-1-5.6-1-6.1 0-10.4 3.3-10.4 7.9-.1 3.4 3.1 5.3 5.4 6.5 2.4 1.2 3.2 1.9 3.2 3 0 1.6-1.9 2.3-3.7 2.3-2.5 0-3.8-.4-5.8-1.3l-.8-.4-.9 5.4c1.5.7 4.1 1.2 6.9 1.3 6.5 0 10.7-3.2 10.8-8.2 0-2.7-1.6-4.8-5.2-6.5-2.2-1.1-3.5-1.8-3.5-3 0-1 1.1-2.1 3.6-2.1 2-.1 3.5.4 4.6.9l.6.3.8-5.1zM63.8 16c.5-1.4 2.5-6.7 2.5-6.7 0 .1.5-1.4.8-2.3l.4 2.1s1.2 5.7 1.4 6.9h-5.1zM71.4.6h-4.8c-1.5 0-2.6.4-3.2 2l-9.2 22h6.5s1.1-3 1.3-3.6h7.9c.2.8.7 3.6.7 3.6h5.7L71.4.6zM21.8.6l-6.1 16.3-.7-3.3c-1.1-3.8-4.6-8-8.6-10L12 24.5h6.5L28.2.6h-6.4z"/>
  <path fill="#F7A520" d="M10.1.6H.1L0 1c7.8 2 12.9 6.8 15 12.5l-2.2-11C12.5 1 11.4.6 10.1.6z"/>
</svg>
