<svg xmlns="http://www.w3.org/2000/svg" viewBox="0 0 50 25">
  <path fill="#FFF" d="M25 12.178c0 6.726-5.494 12.178-12.273 12.178-2.152 0-4.173-.55-5.932-1.515L0 25l2.215-6.534a12.06 12.06 0 01-1.762-6.288C.454 5.452 5.949 0 12.727 0 19.507 0 25 5.452 25 12.178zM12.727 1.939c-5.689 0-10.318 4.593-10.318 10.238 0 2.24.731 4.315 1.965 6.003l-1.288 3.803 3.965-1.261a10.317 10.317 0 005.677 1.693c5.688 0 10.318-4.592 10.318-10.237 0-5.645-4.629-10.239-10.319-10.239zm6.198 13.044c-.076-.124-.276-.199-.577-.348-.301-.149-1.781-.872-2.056-.971-.276-.099-.477-.149-.677.149-.2.299-.777.971-.953 1.17-.176.2-.351.225-.652.075-.301-.149-1.27-.464-2.419-1.481-.894-.791-1.498-1.768-1.673-2.067-.176-.298.784-1.43.884-1.63.101-.199.051-.373-.025-.522-.075-.15-.677-1.618-.928-2.216-.25-.597-.501-.498-.677-.498-.175 0-.376-.025-.576-.025a1.11 1.11 0 00-.803.374c-.276.297-1.053 1.02-1.053 2.489 0 1.469 1.078 2.888 1.229 3.087.15.199 2.081 3.312 5.138 4.507 3.059 1.195 3.059.796 3.611.746.551-.05 1.78-.722 2.031-1.418.25-.699.25-1.296.176-1.421zM48.98 15.94l-.008.029c-.579 2.359-3.191 4.89-5.59 5.416l-.027.006c-1.94.373-3.894.559-5.847.559-.574 0-1.15-.018-1.724-.051l-2.649 2.774c-.656.688-1.81.219-1.81-.734v-2.632c-2.309-.665-4.727-3.08-5.282-5.338l-.007-.029a23.221 23.221 0 010-9.93l.007-.029c.58-2.359 3.192-4.89 5.59-5.416l.028-.006a30.832 30.832 0 0111.694 0l.027.006c2.399.526 5.011 3.058 5.59 5.416l.008.029a23.221 23.221 0 010 9.93zm-2.096-9.452c-.387-1.538-2.37-3.452-3.947-3.805a28.741 28.741 0 00-10.859 0c-1.576.354-3.558 2.267-3.946 3.805a21.051 21.051 0 000 8.974c.387 1.539 2.37 3.453 3.946 3.806h.001a.15.15 0 01.122.147v4.363a.24.24 0 00.414.167l2.058-2.126 1.934-2a.143.143 0 01.11-.044 28.764 28.764 0 006.22-.506c1.576-.354 3.559-2.267 3.947-3.805a21.06 21.06 0 000-8.976zm-3.735 5.114c-.233.003-.338-.194-.353-.404-.031-.416-.051-.835-.108-1.247-.302-2.181-2.028-3.984-4.183-4.371-.324-.059-.656-.074-.985-.109-.208-.022-.479-.035-.526-.295-.038-.218.144-.391.351-.403.056-.003.112 0 .168 0 2.906.082 5.293 2.024 5.806 4.918.086.493.118.997.157 1.498.017.211-.101.411-.327.413zm-5.635-6.828c2.906.081-.055 0 0 0zm.011 1.874a.313.313 0 01.348-.31c.668.037 1.311.183 1.904.5 1.207.643 1.895 1.658 2.096 3.013.009.061.023.123.028.184.012.152.019.305.031.505-.005.037-.008.122-.029.203-.077.294-.52.331-.622.035a.89.89 0 01-.035-.283c-.001-.62-.134-1.238-.446-1.778a3.295 3.295 0 00-1.378-1.302 3.927 3.927 0 00-1.099-.34c-.165-.028-.333-.044-.5-.067-.2-.03-.308-.159-.298-.36zm2.2 3.465c-.017-.157-.031-.315-.068-.468a1.327 1.327 0 00-.481-.762 1.255 1.255 0 00-.393-.19c-.179-.052-.364-.037-.542-.082-.193-.048-.3-.206-.27-.388a.349.349 0 01.369-.282c1.127.082 1.932.669 2.047 2.004.008.094.017.194-.004.284-.035.152-.145.227-.254.236.018 0 .025.001-.006.003-.163.003-.06-.001-.007-.002-.236.002-.366-.131-.391-.353zm-1.989 3.812c.256.108.513.232.808.198.494-.059.654-.604 1-.889.338-.279.77-.282 1.135-.05.364.232.718.481 1.069.733.345.248.688.49 1.006.771.306.271.411.627.238.995-.315.673-.773 1.235-1.435 1.592-.186.101-.409.134-.621.199-.242-.074-.473-.123-.687-.213-2.222-.928-4.267-2.126-5.887-3.962-.921-1.043-1.642-2.222-2.251-3.47-.289-.591-.533-1.206-.781-1.817-.227-.557.107-1.132.458-1.552.33-.394.753-.696 1.212-.917.358-.173.712-.073.973.232.567.663 1.087 1.358 1.507 2.125.258.471.187 1.047-.281 1.368-.113.078-.217.17-.324.257a1.1 1.1 0 00-.245.26.717.717 0 00-.047.624c.579 1.602 1.554 2.846 3.153 3.516z"/>
</svg>
