<svg xmlns="http://www.w3.org/2000/svg" viewBox="-45 33 144 36">
  <path fill="#09A9FA" d="M-20.11 53.387c.656.689 1.349 1.338 1.939 2.098.26.338.506.685.695 1.077.267.557.025 1.169-.438 1.203l-2.885-.002c-.743.067-1.337-.256-1.837-.803-.399-.437-.77-.903-1.154-1.355a2.835 2.835 0 00-.518-.497c-.393-.275-.735-.191-.96.251-.229.449-.281.947-.304 1.447-.031.731-.236.923-.919.957-1.458.075-2.841-.164-4.127-.954-1.134-.697-2.012-1.682-2.777-2.797-1.489-2.17-2.63-4.555-3.655-7.007-.23-.553-.062-.849.505-.86a73.797 73.797 0 012.823-.002c.382.006.635.241.783.631.509 1.346 1.131 2.628 1.913 3.816.208.316.421.632.723.854.337.247.591.165.749-.236.094-.257.15-.527.167-.801.076-.937.085-1.871-.047-2.805-.08-.582-.385-.959-.926-1.069-.275-.057-.235-.167-.101-.336.231-.292.449-.473.884-.473h3.261c.513.109.627.357.697.913l.003 3.895c-.004.215.1.853.459.995.288.102.478-.147.651-.344.781-.891 1.337-1.943 1.836-3.035.217-.484.415-.975.595-1.474.136-.369.35-.551.736-.544l3.137.003c.093 0 .187.002.277.018.528.097.673.342.511.897-.257.871-.758 1.597-1.247 2.326-.524.779-1.083 1.531-1.602 2.314-.478.718-.44 1.079.153 1.699zM13.95 44.7h-2.8c-.8 0-1.3.6-1.3 1.4v1.3h4l-.6 4.1h-3.4v11h-4.1v-11h-2.7v-4.1h2.7v-2.1c.1-2.4.9-4.6 4.9-4.8h3.3v4.2zM45.218 40.956c-2.925 0-5.329 2.404-5.329 5.329 0 2.926 2.404 5.329 5.329 5.329s5.329-2.404 5.329-5.329-2.403-5.329-5.329-5.329zm0 7.941c-1.568 0-2.717-1.149-2.717-2.612 0-1.568 1.253-2.612 2.612-2.612 1.568 0 2.612 1.253 2.612 2.612.001 1.358-1.148 2.717-2.507 2.612zm6.165 3.343c-.313-.523-.836-.732-1.359-.523-.313.104-.417.313-.732.417-2.194 1.568-5.433 1.359-7.837-.104-.104-.104-.313-.313-.417-.313-.732-.313-1.253-.104-1.672.417-.417.732-.417 1.253.104 1.776l.417.417c1.253.94 2.612 1.359 4.389 1.568-.103.105-.312.105-.312.315l-3.657 3.657c-.313 0-.417.313-.417.732s.313.94.836 1.253c.417.104.94.104 1.359-.313l2.821-2.821c.104-.313.313-.313.523 0l2.821 2.821c.313.313.523.417.836.417.523 0 1.149-.313 1.359-.836.313-.417.104-.94-.313-1.359l-3.658-3.655c-.104 0-.104-.104-.313-.313.94-.104 1.776-.313 2.612-.523.836-.417 1.568-.836 2.194-1.568.626-.416.626-.939.416-1.462zM85.48 42.04h-8.96A4.518 4.518 0 0072 46.556v8.885a4.518 4.518 0 004.516 4.52h8.964A4.518 4.518 0 0090 55.445V46.56a4.517 4.517 0 00-4.514-4.52h-.006zm2.617 13.48c0 1.427-1.189 2.617-2.617 2.617h-8.96c-1.427 0-2.617-1.189-2.617-2.617v-8.96c0-1.427 1.189-2.617 2.617-2.617h8.881c1.427 0 2.617 1.189 2.696 2.617v8.96zm-2.379-8.168c-.634 0-1.11-.476-1.11-1.11s.476-1.11 1.11-1.11 1.11.476 1.11 1.11c0 .555-.476 1.11-1.11 1.11zm-4.758-1.03c-2.617 0-4.678 2.141-4.678 4.678 0 2.617 2.141 4.678 4.678 4.678s4.678-2.141 4.678-4.678c.001-2.617-2.14-4.678-4.678-4.678zm0 7.374c-1.507 0-2.696-1.189-2.696-2.696s1.189-2.696 2.696-2.696c1.507 0 2.696 1.189 2.696 2.696s-1.189 2.696-2.696 2.696z"/>
</svg>
