<svg xmlns="http://www.w3.org/2000/svg" viewBox="-47 9 51 34">
  <path fill="#0095e0" d="M-47 9h5v5h-5V9zm12 0v5h5V9h-5zm-6 5h5V9h-5v5zm-6 12h5v-5h-5v5zm12 0h5v-5h-5v5zm-6 0h5v-5h-5v5zm-6-6h5v-5h-5v5zm12 0h5v-5h-5v5zm-6 0h5v-5h-5v5z"/>
  <path fill="#9C9DA2" d="M-47 26h5v5h-5v-5zm12 0v5h5v-5h-5zm-6 5h5v-5h-5v5zm-6 12h5v-5h-5v5zm12 0h5v-5h-5v5zm-6 0h5v-5h-5v5zm-6-6h5v-5h-5v5zm12 0h5v-5h-5v5zm-6 0h5v-5h-5v5z"/>
  <path fill="#0095e0" d="M-30 9h5v5h-5V9zm0 11h5v-5h-5v5zm0 6h5v-5h-5v5zm6-15.5v2h11v-2h-11zm0 8h11v-2h-11v2zm0 6h11v-2h-11v2z"/>
  <path fill="#9C9DA2" d="M-30 26h5v5h-5v-5zm0 11h5v-5h-5v5zm0 6h5v-5h-5v5zm6-15.5v2h11v-2h-11zm0 8h11v-2h-11v2zm0 6h11v-2h-11v2z"/>
  <path fill="#0095e0" d="M4 9v2h-17V9H4zm-8.5 5H-13v2h8.5v-2zm-8.5 7h4.75v-2H-13v2zm12.6 2.592V14h-1.2v9.594l-3.429-3.69-.879.819L-1.001 26l4.908-5.278-.879-.819L-.4 23.592z"/>
</svg>
