<svg xmlns="http://www.w3.org/2000/svg" viewBox="2 3 20 20">
  <path fill="#f32d3f" d="M11.561 12.187H2.792a.793.793 0 0 0 0 1.585h8.769c.354 1.306 1.553 2.235 2.923 2.235s2.569-.928 2.923-2.235h3.797a.793.793 0 0 0 0-1.584h-3.797a3.037 3.037 0 0 0-2.923-2.234 3.033 3.033 0 0 0-2.923 2.233zm4.609.793c0 .93-.756 1.686-1.686 1.686-.93 0-1.686-.756-1.686-1.686s.756-1.686 1.686-1.686c.93 0 1.686.755 1.686 1.686zM6.962 5.513h-4.17a.793.793 0 0 0 0 1.584h4.17a3.037 3.037 0 0 0 2.923 2.234 3.038 3.038 0 0 0 2.923-2.234h8.399a.793.793 0 1 0 0-1.585h-8.403a3.037 3.037 0 0 0-2.923-2.234 3.034 3.034 0 0 0-2.919 2.235zm4.609.792c0 .93-.756 1.686-1.686 1.686-.93 0-1.686-.756-1.686-1.686s.756-1.686 1.686-1.686c.931 0 1.686.756 1.686 1.686zM6.962 18.903h-4.17a.793.793 0 0 0 0 1.584h4.17a3.038 3.038 0 0 0 2.923 2.235 3.038 3.038 0 0 0 2.923-2.235h8.395a.793.793 0 0 0 0-1.584h-8.399a3.038 3.038 0 0 0-2.923-2.235 3.035 3.035 0 0 0-2.919 2.235zm4.609.792c0 .93-.756 1.686-1.686 1.686-.93 0-1.686-.756-1.686-1.686 0-.93.756-1.686 1.686-1.686.931 0 1.686.759 1.686 1.686z"/>
</svg>