<svg xmlns="http://www.w3.org/2000/svg" width="60" height="24" viewBox="0 0 60 24">
  <path d="M21.65 19.42h-2.2v-1.26a3.264 3.264 0 01-2.31 1.42 1.37 1.37 0 01-1.38-.88 4.636 4.636 0 01-.25-1.69V7.82h2.2v9.42a.431.431 0 00.47.44 1.849 1.849 0 001.27-1.02V7.82h2.2v11.6zm-7.76-7.81a4.586 4.586 0 00-.69-2.75 2.922 2.922 0 00-2.43-1.12 2.756 2.756 0 00-2.43 1.12 4.545 4.545 0 00-.7 2.76v4.13a4.245 4.245 0 00.67 2.66 3.063 3.063 0 002.46 1.21 3.129 3.129 0 002.48-1.21 4.326 4.326 0 00.64-2.66v-4.14zm-2.2 4.37c.12 1.14-.24 1.71-.92 1.71s-1.04-.57-.93-1.71v-4.6c-.11-1.14.24-1.68.93-1.68s1.04.54.92 1.68v4.6zm-6.48-2.87v6.31H2.9v-6.31S.5 5.36 0 3.92h2.43l1.63 6.05 1.61-6.05h2.44zM32.44 2.28h22a5 5 0 015 5v9.97a5 5 0 01-5 5h-22a5 5 0 01-5-5V7.28a5 5 0 015-5z" fill-rule="evenodd" fill="#fff"/>
  <path d="M46.27 9.67a1.65 1.65 0 00-1.09.52v6.96a1.621 1.621 0 001.09.53c.61 0 .88-.44.88-1.59v-4.94c0-1.14-.27-1.48-.88-1.48zm8.64 1.38c0-1.06-.28-1.38-.97-1.38s-1 .29-1 1.36v1.27h1.97v-1.25zm4.75-5.88a7.279 7.279 0 00-1.38-3.38A4.967 4.967 0 0054.82.34c-4.84-.35-12.09-.35-12.09-.35h-.02s-7.26 0-12.09.35a5 5 0 00-3.47 1.45 7.34 7.34 0 00-1.37 3.38 50.348 50.348 0 00-.35 5.53v2.59a50.287 50.287 0 00.35 5.52 7.4 7.4 0 001.37 3.39 5.975 5.975 0 003.82 1.46c2.76.26 11.75.34 11.75.34s7.26-.01 12.1-.36a4.945 4.945 0 003.46-1.44 7.34 7.34 0 001.38-3.39 51.742 51.742 0 00.34-5.52V10.7a51.8 51.8 0 00-.34-5.53zM33.03 19.42h-2.32V6.22h-2.43V4.04h7.29v2.18h-2.54v13.2zm8.33 0h-2.2v-1.26a3.264 3.264 0 01-2.31 1.42 1.387 1.387 0 01-1.38-.88 4.683 4.683 0 01-.24-1.69V7.94h2.2v9.3a.423.423 0 00.46.44 1.812 1.812 0 001.27-1.02V7.94h2.2v11.48zm7.99-3.44a8.689 8.689 0 01-.23 2.29 1.716 1.716 0 01-1.73 1.3 2.983 2.983 0 01-2.2-1.31l-.01 1.16H43.1V4.04h2.08v5.01a3.012 3.012 0 012.21-1.29 1.688 1.688 0 011.68 1.33 8.012 8.012 0 01.28 2.29v4.6zm4.6 1.7a.9.9 0 00.94-.83c.02-.12.02-.61.02-1.45h2.2v.33a12.1 12.1 0 01-.08 1.35 2.816 2.816 0 01-.49 1.24 2.894 2.894 0 01-2.53 1.25 3 3 0 01-2.54-1.18 4.159 4.159 0 01-.73-2.64v-4.02a4.636 4.636 0 01.7-2.76 3.028 3.028 0 012.51-1.2 2.959 2.959 0 012.48 1.2 4.475 4.475 0 01.68 2.71v2.34h-4.17v2.07c-.01 1.06.3 1.59 1.01 1.59z" fill="#eb2a3d" fill-rule="evenodd"/>
</svg>
