<?xml version="1.0" encoding="utf-8"?>
<!-- Generator: Adobe Illustrator 19.1.1, SVG Export Plug-In . SVG Version: 6.00 Build 0)  -->
<svg version="1.1" id="Слой_1" xmlns="http://www.w3.org/2000/svg" xmlns:xlink="http://www.w3.org/1999/xlink" x="0px" y="0px"
	 viewBox="47 -48 110 88" enable-background="new 47 -48 110 88" xml:space="preserve">
<path fill="#FFFFFF" d="M66.56-30.565l-3.91-3.91c-0.021-0.021-0.046-0.035-0.067-0.055c2.249-3.413,1.306-8.003-2.107-10.252
	c-3.413-2.249-8.003-1.306-10.252,2.107c-2.249,3.413-1.306,8.003,2.107,10.252c2.468,1.626,5.666,1.629,8.136,0.006
	c0.019,0.021,0.034,0.046,0.055,0.067l3.91,3.91c0.62,0.555,1.572,0.502,2.127-0.117C67.07-29.128,67.071-29.992,66.56-30.565z
	 M56.4-33.762c-2.67,0.039-4.867-2.093-4.907-4.763c-0.039-2.67,2.093-4.867,4.764-4.907c2.671-0.039,4.868,2.093,4.907,4.764
	c0.039,2.671-2.093,4.868-4.764,4.907l0,0V-33.762z"/>
<path fill="#FFFFFF" d="M84.625-33.045l-0.45-3.332c-0.189-1.17-1.215-2.02-2.4-1.987h-3.3c-1.185-0.033-2.211,0.817-2.4,1.987
	l-0.45,3.339c-0.058,0.514,0.312,0.978,0.826,1.036c0.011,0.001,0.022,0.002,0.034,0.003h7.28c0.253-0.023,0.487-0.145,0.65-0.34
	C84.577-32.537,84.653-32.791,84.625-33.045z M80.125-43.999c1.346,0.072,2.378,1.221,2.307,2.566s-1.221,2.378-2.567,2.307
	c-1.295-0.069-2.31-1.14-2.31-2.437C77.593-42.945,78.743-44.035,80.125-43.999z"/>
<path fill="#0095E0" d="M84.625-11.045l-0.45-3.332c-0.189-1.17-1.215-2.02-2.4-1.987h-3.3c-1.185-0.033-2.211,0.817-2.4,1.987
	l-0.45,3.339c-0.058,0.514,0.312,0.978,0.826,1.036c0.011,0.001,0.022,0.002,0.034,0.003h7.28c0.253-0.023,0.487-0.145,0.65-0.34
	C84.577-10.537,84.653-10.791,84.625-11.045z M80.125-21.999c1.346,0.072,2.378,1.221,2.307,2.566
	c-0.072,1.346-1.221,2.378-2.567,2.307c-1.295-0.069-2.31-1.14-2.31-2.437C77.593-20.945,78.743-22.035,80.125-21.999z"/>
<path fill="#3C3E42" d="M84.625,10.955l-0.45-3.332c-0.189-1.17-1.215-2.02-2.4-1.987h-3.3c-1.185-0.033-2.211,0.817-2.4,1.987
	l-0.45,3.339c-0.058,0.514,0.312,0.978,0.826,1.036c0.011,0.001,0.022,0.002,0.034,0.003h7.28c0.253-0.023,0.487-0.145,0.65-0.34
	C84.577,11.463,84.653,11.209,84.625,10.955z M80.125,0.001c1.346,0.072,2.378,1.221,2.307,2.566
	c-0.072,1.346-1.221,2.378-2.567,2.307c-1.295-0.069-2.31-1.14-2.31-2.437C77.593,1.055,78.743-0.035,80.125,0.001z"/>
<path fill="#F32D3F" d="M84.625,32.955l-0.45-3.332c-0.189-1.17-1.215-2.02-2.4-1.987h-3.3c-1.185-0.033-2.211,0.817-2.4,1.987
	l-0.45,3.339c-0.058,0.514,0.312,0.978,0.826,1.036c0.011,0.001,0.022,0.002,0.034,0.003h7.28c0.253-0.023,0.487-0.145,0.65-0.34
	C84.577,33.463,84.653,33.209,84.625,32.955z M80.125,22.001c1.346,0.072,2.378,1.221,2.307,2.566
	c-0.072,1.346-1.221,2.378-2.567,2.307c-1.295-0.069-2.31-1.14-2.31-2.437C77.593,23.055,78.743,21.965,80.125,22.001z"/>
<path fill="#FFFFFF" d="M108.48-39.447c-0.059-0.169-0.212-0.286-0.39-0.3L104-40.08l-1.59-3.654C102.338-43.896,102.177-44,102-44
	c-0.179-0.005-0.343,0.102-0.41,0.268L100-40.078l-4.09,0.333c-0.236,0.01-0.419,0.21-0.409,0.446
	c0.005,0.123,0.063,0.238,0.159,0.315l3.09,2.588l-0.93,3.857c-0.039,0.17,0.028,0.347,0.17,0.449
	c0.149,0.101,0.343,0.109,0.5,0.022L102-34.12l3.51,2.052c0.069,0.043,0.149,0.066,0.23,0.066c0.093,0,0.183-0.028,0.26-0.08
	c0.149-0.097,0.218-0.279,0.17-0.45l-0.93-3.857l3.1-2.588C108.479-39.09,108.535-39.276,108.48-39.447z"/>
<path fill="#0095E0" d="M108.48-17.447c-0.059-0.169-0.212-0.286-0.39-0.3L104-18.08l-1.59-3.654C102.338-21.895,102.177-22,102-22
	c-0.179-0.005-0.343,0.102-0.41,0.268L100-18.078l-4.09,0.333c-0.236,0.01-0.419,0.21-0.409,0.446
	c0.005,0.123,0.063,0.238,0.159,0.315l3.09,2.588l-0.93,3.857c-0.039,0.17,0.028,0.347,0.17,0.449
	c0.149,0.101,0.343,0.109,0.5,0.022L102-12.12l3.51,2.052c0.069,0.043,0.149,0.066,0.23,0.066c0.093,0,0.183-0.028,0.26-0.08
	c0.149-0.097,0.218-0.279,0.17-0.45l-0.93-3.857l3.1-2.588C108.479-17.089,108.535-17.276,108.48-17.447z"/>
<path fill="none" stroke="#3C3E42" stroke-width="1.4" stroke-miterlimit="10" d="M108.48,4.553c-0.059-0.169-0.212-0.286-0.39-0.3
	L104,3.92l-1.59-3.654C102.338,0.105,102.177,0,102,0c-0.179-0.005-0.343,0.102-0.41,0.268L100,3.922l-4.09,0.333
	c-0.236,0.01-0.419,0.21-0.409,0.446c0.005,0.123,0.063,0.238,0.159,0.315l3.09,2.588l-0.93,3.857
	c-0.039,0.17,0.028,0.347,0.17,0.449c0.149,0.101,0.343,0.109,0.5,0.022L102,9.88l3.51,2.052c0.069,0.043,0.149,0.066,0.23,0.066
	c0.093,0,0.183-0.028,0.26-0.08c0.149-0.097,0.218-0.279,0.17-0.45l-0.93-3.857l3.1-2.588C108.479,4.911,108.535,4.724,108.48,4.553
	z"/>
<path fill="#F32D3F" d="M108.48,26.553c-0.059-0.169-0.212-0.286-0.39-0.3L104,25.92l-1.59-3.654C102.338,22.105,102.177,22,102,22
	c-0.179-0.005-0.343,0.102-0.41,0.268L100,25.922l-4.09,0.333c-0.236,0.01-0.419,0.21-0.409,0.446
	c0.005,0.123,0.063,0.238,0.159,0.315l3.09,2.588l-0.93,3.857c-0.039,0.17,0.028,0.347,0.17,0.449
	c0.149,0.101,0.343,0.109,0.5,0.022L102,31.88l3.51,2.052c0.069,0.043,0.149,0.066,0.23,0.066c0.093,0,0.183-0.028,0.26-0.08
	c0.149-0.097,0.218-0.279,0.17-0.45l-0.93-3.857l3.1-2.588C108.479,26.911,108.535,26.724,108.48,26.553z"/>
<path fill="#FFFFFF" d="M122.5-30.996c-0.007,0.782-0.646,1.413-1.426,1.413c-0.004,0-0.009,0-0.013,0
	c-0.779-0.008-1.413-0.647-1.413-1.426c0.004-0.788,0.645-1.426,1.431-1.426c0.003,0,0.005,0,0.007,0l0.001,0
	C121.873-32.427,122.507-31.782,122.5-30.996z M128.207-32.435l-0.002,0c-0.002,0-0.004,0-0.007,0c-0.38,0-0.737,0.147-1.007,0.415
	c-0.271,0.27-0.422,0.628-0.423,1.011c0,0.778,0.633,1.418,1.412,1.426c0.004,0,0.009,0,0.013,0c0.376,0,0.73-0.145,0.999-0.408
	c0.271-0.267,0.423-0.624,0.427-1.004C129.626-31.782,128.993-32.427,128.207-32.435z M133.574-40.411l-2.827,6.434
	c-0.084,0.362-0.443,0.647-0.859,0.65h-9.49c-0.418-0.003-0.777-0.288-0.876-0.692l-1.229-6.385l-1.259-2.758h-2.013
	c-0.505,0-0.918-0.412-0.919-0.918c0-0.507,0.412-0.92,0.919-0.92h2.679c0.418,0.003,0.777,0.288,0.876,0.691l1.256,2.749H132.7
	c0.281,0,0.549,0.135,0.718,0.36v0C133.587-40.972,133.644-40.685,133.574-40.411z M120.312-39.72l0.804,4.557h8.109l2.231-4.557
	H120.312z"/>
<path fill="#0095E0" d="M122.5-8.996c-0.007,0.782-0.646,1.413-1.426,1.413c-0.004,0-0.009,0-0.013,0
	c-0.779-0.008-1.413-0.647-1.413-1.426c0.004-0.788,0.645-1.426,1.431-1.426c0.003,0,0.005,0,0.007,0l0.001,0
	C121.873-10.427,122.507-9.782,122.5-8.996z M128.207-10.435l-0.002,0c-0.002,0-0.004,0-0.007,0c-0.38,0-0.737,0.147-1.007,0.415
	c-0.271,0.27-0.422,0.628-0.423,1.011c0,0.778,0.633,1.418,1.412,1.426c0.004,0,0.009,0,0.013,0c0.376,0,0.73-0.145,0.999-0.408
	c0.271-0.267,0.423-0.624,0.427-1.004C129.626-9.782,128.993-10.427,128.207-10.435z M133.574-18.411l-2.827,6.434
	c-0.084,0.362-0.443,0.647-0.859,0.65h-9.49c-0.418-0.003-0.777-0.288-0.876-0.692l-1.229-6.385l-1.259-2.758h-2.013
	c-0.505,0-0.918-0.412-0.919-0.918c0-0.507,0.412-0.92,0.919-0.92h2.679c0.418,0.003,0.777,0.288,0.876,0.691l1.256,2.749H132.7
	c0.281,0,0.549,0.135,0.718,0.36v0C133.587-18.972,133.644-18.685,133.574-18.411z M120.312-17.72l0.804,4.557h8.109l2.231-4.557
	H120.312z"/>
<path fill="#3C3E42" d="M122.5,13.004c-0.007,0.782-0.646,1.413-1.426,1.413c-0.004,0-0.009,0-0.013,0
	c-0.779-0.008-1.413-0.647-1.413-1.426c0.004-0.788,0.645-1.426,1.431-1.426c0.003,0,0.005,0,0.007,0l0.001,0
	C121.873,11.573,122.507,12.218,122.5,13.004z M128.207,11.565l-0.002,0c-0.002,0-0.004,0-0.007,0c-0.38,0-0.737,0.147-1.007,0.415
	c-0.271,0.27-0.422,0.628-0.423,1.011c0,0.778,0.633,1.418,1.412,1.426c0.004,0,0.009,0,0.013,0c0.376,0,0.73-0.145,0.999-0.408
	c0.271-0.267,0.423-0.624,0.427-1.004C129.626,12.218,128.993,11.573,128.207,11.565z M133.574,3.589l-2.827,6.434
	c-0.084,0.362-0.443,0.647-0.859,0.65h-9.49c-0.418-0.003-0.777-0.288-0.876-0.692l-1.229-6.385l-1.259-2.758h-2.013
	c-0.505,0-0.918-0.412-0.919-0.918c0-0.507,0.412-0.92,0.919-0.92h2.679c0.418,0.003,0.777,0.288,0.876,0.691l1.256,2.749H132.7
	c0.281,0,0.549,0.135,0.718,0.36v0C133.587,3.028,133.644,3.315,133.574,3.589z M120.312,4.28l0.804,4.557h8.109l2.231-4.557
	H120.312z"/>
<path fill="#F32D3F" d="M122.5,35.004c-0.007,0.782-0.646,1.413-1.426,1.413c-0.004,0-0.009,0-0.013,0
	c-0.779-0.008-1.413-0.647-1.413-1.426c0.004-0.788,0.645-1.426,1.431-1.426c0.003,0,0.005,0,0.007,0l0.001,0
	C121.873,33.573,122.507,34.218,122.5,35.004z M128.207,33.565l-0.002,0c-0.002,0-0.004,0-0.007,0c-0.38,0-0.737,0.147-1.007,0.415
	c-0.271,0.27-0.422,0.628-0.423,1.011c0,0.778,0.633,1.418,1.412,1.426c0.004,0,0.009,0,0.013,0c0.376,0,0.73-0.145,0.999-0.408
	c0.271-0.267,0.423-0.624,0.427-1.004C129.626,34.218,128.993,33.573,128.207,33.565z M133.574,25.589l-2.827,6.434
	c-0.084,0.362-0.443,0.647-0.859,0.65h-9.49c-0.418-0.003-0.777-0.288-0.876-0.692l-1.229-6.385l-1.259-2.758h-2.013
	c-0.505,0-0.918-0.412-0.919-0.918c0-0.507,0.412-0.92,0.919-0.92h2.679c0.418,0.003,0.777,0.288,0.876,0.691l1.256,2.749H132.7
	c0.281,0,0.549,0.135,0.718,0.36v0C133.587,25.028,133.644,25.315,133.574,25.589z M120.312,26.28l0.804,4.557h8.109l2.231-4.557
	H120.312z"/>
<path fill="#FFFFFF" d="M146.019-45c0.584,0,1.062,0.474,1.062,1.053v11.931c0,0.579-0.478,1.053-1.062,1.053
	c-0.584,0-1.062-0.474-1.062-1.053v-11.931C144.957-44.526,145.435-45,146.019-45z M149.876-37.505v5.615
	c0,0.579,0.478,1.053,1.062,1.053c0.584,0,1.062-0.474,1.062-1.053v-5.615c0-0.579-0.478-1.053-1.062-1.053
	C150.354-38.558,149.876-38.084,149.876-37.505z M140-40.438v8.422c0,0.579,0.478,1.053,1.062,1.053
	c0.584,0,1.062-0.474,1.062-1.053v-8.422c0-0.579-0.478-1.053-1.062-1.053C140.478-41.491,140-41.017,140-40.438z"/>
<path fill="#0095E0" d="M146.019-23c0.584,0,1.062,0.474,1.062,1.053v11.931c0,0.579-0.478,1.053-1.062,1.053
	c-0.584,0-1.062-0.474-1.062-1.053v-11.931C144.957-22.526,145.435-23,146.019-23z M149.876-15.505v5.615
	c0,0.579,0.478,1.053,1.062,1.053c0.584,0,1.062-0.474,1.062-1.053v-5.615c0-0.579-0.478-1.053-1.062-1.053
	C150.354-16.558,149.876-16.084,149.876-15.505z M140-18.438v8.422c0,0.579,0.478,1.053,1.062,1.053
	c0.584,0,1.062-0.474,1.062-1.053v-8.422c0-0.579-0.478-1.053-1.062-1.053C140.478-19.491,140-19.017,140-18.438z"/>
<path fill="#3C3E42" d="M146.019-1c0.584,0,1.062,0.474,1.062,1.053v11.931c0,0.579-0.478,1.053-1.062,1.053
	c-0.584,0-1.062-0.474-1.062-1.053V0.053C144.957-0.526,145.435-1,146.019-1z M149.876,6.495v5.615c0,0.579,0.478,1.053,1.062,1.053
	c0.584,0,1.062-0.474,1.062-1.053V6.495c0-0.579-0.478-1.053-1.062-1.053C150.354,5.442,149.876,5.916,149.876,6.495z M140,3.562
	v8.422c0,0.579,0.478,1.053,1.062,1.053c0.584,0,1.062-0.474,1.062-1.053V3.562c0-0.579-0.478-1.053-1.062-1.053
	C140.478,2.509,140,2.983,140,3.562z"/>
<path fill="#F32D3F" d="M146.019,21c0.584,0,1.062,0.474,1.062,1.053v11.931c0,0.579-0.478,1.053-1.062,1.053
	c-0.584,0-1.062-0.474-1.062-1.053V22.053C144.957,21.474,145.435,21,146.019,21z M149.876,28.495v5.615
	c0,0.579,0.478,1.053,1.062,1.053c0.584,0,1.062-0.474,1.062-1.053v-5.615c0-0.579-0.478-1.053-1.062-1.053
	C150.354,27.442,149.876,27.916,149.876,28.495z M140,25.562v8.422c0,0.579,0.478,1.053,1.062,1.053
	c0.584,0,1.062-0.474,1.062-1.053v-8.422c0-0.579-0.478-1.053-1.062-1.053C140.478,24.509,140,24.983,140,25.562z"/>
</svg>
