<svg xmlns="http://www.w3.org/2000/svg" viewBox="318 -68 60 20">
  <linearGradient id="a" gradientUnits="userSpaceOnUse" x1="632.187" y1="61.81" x2="632.273" y2="61.81" gradientTransform="matrix(201.7633 0 0 -79 -127191.46 4820)">
    <stop offset="0" stop-color="#00a0e5"/>
    <stop offset="1" stop-color="#0077c3"/>
  </linearGradient>
  <path d="M360.6-66.4c.3 3.8 3.9 6.8 8.3 6.8h9c.1-.3.1-.7.1-1.1 0-3.2-2.5-5.7-5.7-5.7h-11.7z" fill="url(#a)"/>
  <path d="M361.3-58.7v9.3h5.2v-5.5h5.9c2.5 0 4.6-1.6 5.4-3.8h-16.5zm-8.3-1c.1-.1.2-.2.3-.2.2 0 .3.1.3.3v10.1h5.2v-16.9h-5.2c-.7 0-1.4.5-1.7 1.1l-4.1 8.8v.1c-.1.1-.2.1-.3.1-.2 0-.3-.2-.3-.3v-9.8H342v16.9h5.2c.6 0 1.4-.5 1.6-1.1l4.2-9.1zm-19.4.3l-3 9.9h-3.7l-3-9.9c0-.2-.2-.3-.3-.3-.2 0-.3.2-.3.3v9.8H318v-16.9h5.7c1 0 2 .7 2.2 1.6l2.5 8.2c.1.4.3.4.5 0l2.5-8.2c.3-.9 1.3-1.6 2.2-1.6h5.7v16.9h-5.2v-9.8c0-.2-.2-.3-.3-.3 0 0-.1.2-.2.3z" fill="#37a72e"/>
</svg>
