<svg xmlns="http://www.w3.org/2000/svg" width="445.742" height="67.321" viewBox="0 0 6903 1043" shape-rendering="geometricPrecision" text-rendering="geometricPrecision" image-rendering="optimizeQuality" fill-rule="evenodd" clip-rule="evenodd">
  <path d="M2785 715h22c18 0 26 7 26 20 0 17-10 45-40 45h-23l15-65zm-27 123h20c20 0 28 8 28 25 0 34-16 57-48 57h-17l17-82zm-103 139h107c103 0 121-88 121-121 0-26-13-41-34-51 26-6 60-39 60-89 0-42-31-59-64-59h-123l-67 320zm400-127l-9 43c-5 24-19 33-35 33-13 0-21-6-21-21 0-4 1-8 2-13l34-160c3-16 18-23 31-23 11 0 23 6 23 19 0 3-1 8-7 35h78c6-28 6-34 6-44 0-39-25-69-87-69-73 0-112 40-123 90l-30 140c-3 13-4 25-4 36 0 48 28 69 86 69 71 0 111-32 127-105l6-30h-77zm92 127h179l13-61h-102l16-75h91l13-61h-92l14-62h102l13-61h-180l-67 320zm424-320l-32 151c-21 99-25 112-46 112-8 0-15-1-18-3l-12 54c13 6 23 10 40 10 52 0 81-32 107-153l23-110h51l-55 259h77l68-320h-203zm230 0l19 252c-6 11-15 11-21 11-7 0-15-1-19-2l-11 54c5 5 23 9 37 9 54 0 75-16 106-77l121-247h-80l-59 140c-6 12-12 32-22 66h-1c8-44 11-76 11-99V657h-81zm254 0l-24 114c-1 8-2 14-2 21 0 40 31 55 55 55 31 0 42-1 60-6l-29 136h77l68-320h-77l-26 123c-11 5-19 7-31 7s-17-5-17-15c0-2 0-5 1-8l23-107h-78zm327 0h-77l-68 320h330l68-320h-77l-55 259h-51l55-259h-74l-55 259h-51l55-259zm230 320h179l13-61h-102l16-75h91l13-61h-92l14-62h102l13-61h-180l-67 320zm212 0h179l13-61h-102l16-75h92l12-61h-91l13-62h102l13-61h-179l-68 320zm426-320l-19 91c-21 99-35 132-66 168h-10l-27 127h75l14-66h111l-14 66h75l26-127h-16l55-259h-204zm72 259h-76c27-35 41-77 54-138l13-60h51l-42 198zm206-259l-32 151c-21 99-25 112-47 112-7 0-15-1-18-3l-12 54c13 6 24 10 40 10 52 0 81-32 107-153l23-110h51l-55 259h77l68-320h-202zm332 197l-26 123h77l68-320h-117c-64 0-110 57-110 117 0 28 11 51 29 62l-90 141h82l72-123h15zm12-57h-19c-15 0-24-12-24-29 0-31 20-53 43-53h18l-18 82zm330-82h23c18 0 26 7 26 20 0 17-10 45-40 45h-23l14-65zm-26 123h19c21 0 29 8 29 25 0 34-16 57-48 57h-17l17-82zm-104 139h108c103 0 121-88 121-121 0-26-13-41-34-51 26-6 60-39 60-89 0-42-31-59-64-59h-123l-68 320zm364-320l-138 320h77l23-64h59l-2 64h76l-3-320h-92zm-18 198l50-140h1l-10 140h-41zm292-5l-9 43c-5 24-19 33-35 33-13 0-21-6-21-21 0-4 1-8 2-13l34-160c3-16 18-23 31-23 11 0 23 6 23 19 0 3-1 8-7 35h78c6-28 6-34 6-44 0-39-25-69-87-69-73 0-112 40-123 90l-30 140c-3 13-4 25-4 36 0 48 28 69 86 69 71 0 111-32 127-105l6-30h-77z" fill="#2b2a29" fill-rule="nonzero"/>
  <path d="M206 505c440-130 883-241 1343-222-98 27-192 88-248 198 489-8 941-159 1384-346-76 49-158 95-244 137h-1l-36 18 5-3c-384 182-846 290-1318 334 48-87 82-177 226-245-304-6-753 53-1111 129z" fill="#0089cc"/>
  <path d="M0 618c95-28 190-55 285-80 307-54 644-99 885-95-24 11-60 40-79 53-303-4-735 72-1091 122zm2440-346c-422 260-995 425-1569 478 45-81 92-182 214-248-72 73-85 108-122 175 533-49 1031-160 1441-387l36-18z" fill="#e31e24"/>
  <path d="M2879 91l-164 382h92l28-76h70l-2 76h90l-3-382h-111zm-20 237l59-168h1l-11 168h-49zm332-237h-87l-81 382h87l19-89 35-44 14 133h97l-39-213 120-169h-100l-97 152 32-152zm323 72h68l15-72h-225l-15 72h72l-65 310h85l65-310zm119-72l-81 382h90l129-232c-13 40-39 102-48 143l-18 89h87l81-382h-87l-129 240h-1c11-42 36-103 45-145l20-95h-88zm368 69h27c22 0 31 8 31 24 0 21-12 55-48 55h-27l17-79zm-31 147h23c25 0 34 10 34 30 0 41-19 68-57 68h-21l21-98zm-124 166h128c123 0 144-105 144-144 0-32-15-49-40-61 31-7 72-46 72-106 0-50-38-71-76-71h-147l-81 382zm467-382h-92l-81 382h92l34-162h61l-35 162h92l81-382h-92l-32 148h-60l32-148zm297 0h-92l-81 382h134c124 0 140-114 140-154 0-63-44-80-91-80h-41l31-148zm-45 216h17c19 0 35 9 35 34 0 22-7 64-57 64h-16l21-98zm327-216h-92l-81 382h93l80-382zm113-91c-1 6-2 12-2 17 0 37 26 52 67 52 42 0 87-23 97-69h-34c-13 24-29 27-51 27s-42-3-42-27h-35zm-59 91l-81 382h89l129-232h1c-14 40-39 102-48 143l-19 89h88l81-382h-88l-129 240c11-42 36-103 44-145l21-95h-88zm555-8c-87 0-135 47-147 107l-37 172c-3 13-4 26-4 37 0 53 32 83 102 83 87 0 133-44 150-120l35-163c3-13 4-24 4-35 0-47-29-81-103-81zm-15 70c13 0 26 7 26 23 0 2-1 6-1 8l-41 194c-5 23-24 34-40 34-14 0-25-9-25-24 0-3 0-7 1-10l41-194c5-22 23-31 39-31zm310 10h67l16-72h-225l-16 72h73l-66 310h85l66-310zm134-72l-24 109c-25 118-41 157-78 201h-13l-32 151h90l16-79h133l-17 79h90l32-151h-20l66-310h-243zm85 310h-91c32-43 49-92 65-166l15-72h61l-50 238zm305-310h-92l-81 382h134c124 0 140-114 140-154 0-63-45-80-91-80h-41l31-148zm-46 216h18c19 0 35 9 35 34 0 22-8 64-58 64h-16l21-98zm328-216h-92l-81 382h92l81-382zm35 0l41 189-126 193h89l72-116 16 116h97l-44-193 121-189h-89l-68 112-20-112h-89z" fill="#e31e24" fill-rule="nonzero"/>
</svg>
