<svg xmlns="http://www.w3.org/2000/svg" width="40" height="40" viewBox="0 0 40 40">
<path fill="#FFF" d="M24,22.3L24,22.3l-0.5-1.2c0,0,0.4-0.2,0.4-0.7s-0.5-0.7-0.5-0.7l0.6-1.2c0.5,0.2,1.2,0.9,1.2,1.9
	C25.2,21.5,24.5,22.1,24,22.3z M11.7,19.4l14.6-5.6v2L23,17c-3.8,3.8,0.2,6.8,0.2,6.8l3,1.1v2l-14.5-5.5
	C11.7,21.4,10.6,20.5,11.7,19.4z M14.4,20.4l5.8,2.3l0,0c0,0-1.2-2,0-4.5L14.4,20.4z M40,20c0,11-9,20-20,20S0,31,0,20S9,0,20,0
	S40,9,40,20z M3,15.9h1C5.8,8.8,12.3,3.5,20,3.5s14.1,5.3,16,12.4h1C35.1,8.2,28.2,2.5,20,2.5S4.9,8.2,3,15.9z M20,6
	C12.3,6,6,12.3,6,20s6.3,14,14,14s14-6.3,14-14S27.7,6,20,6z M3,21c0.6,0,1-0.4,1-1s-0.4-1-1-1s-1,0.4-1,1S2.4,21,3,21z M36.8,24.9
	h-1c-2.1,6.7-8.4,11.6-15.8,11.6S6.3,31.6,4.2,24.9h-1C5.3,32.2,12,37.5,20,37.5S34.7,32.2,36.8,24.9z M38,20.4c0-0.6-0.4-1-1-1
	s-1,0.4-1,1s0.4,1,1,1S38,21,38,20.4z"/>
</svg>
